<?xml version="1.0" encoding="utf-8"?>
<!-- Generator: Adobe Illustrator 25.0.1, SVG Export Plug-In . SVG Version: 6.00 Build 0)  -->
<svg version="1.1" id="Calque_1" xmlns="http://www.w3.org/2000/svg" xmlns:xlink="http://www.w3.org/1999/xlink" x="0px" y="0px"
	 viewBox="0 0 24 24" style="enable-background:new 0 0 24 24;position:relative;display:inline-block;" xml:space="preserve">
<style type="text/css">
	.st0{fill:#E10098;}
</style>
<path class="st0" d="M12,0c-1.2,0-2.1,1-2.1,2.1s1,2.1,2.1,2.1s2.1-1,2.1-2.1S13.2,0,12,0z M20.5,4.9c-1.2,0-2.1,1-2.1,2.1
	s1,2.1,2.1,2.1s2.1-1,2.1-2.1S21.7,4.9,20.5,4.9L20.5,4.9z M20.5,14.8c-1.2,0-2.1,1-2.1,2.1s1,2.1,2.1,2.1s2.1-1,2.1-2.1
	S21.7,14.8,20.5,14.8z M12,19.7c-1.2,0-2.1,1-2.1,2.1c0,1.2,1,2.1,2.1,2.1c0,0,0,0,0,0c1.2,0,2.1-1,2.1-2.1S13.2,19.7,12,19.7z
	 M3.5,14.8c-1.2,0-2.1,1-2.1,2.1s1,2.1,2.1,2.1c0,0,0,0,0,0c1.2,0,2.1-1,2.1-2.1S4.6,14.8,3.5,14.8L3.5,14.8z M3.5,4.9
	c-1.2,0-2.1,1-2.1,2.1s1,2.1,2.1,2.1s2.1-1,2.1-2.1S4.6,4.9,3.5,4.9z M12,1.6L3,6.8v10.4l9,5.2l9-5.2V6.8L12,1.6z M12,3.2l7.7,13.3
	H4.3L12,3.2z M10.6,3.5L4,15V7.4L10.6,3.5z M13.4,3.5L20,7.4V15L13.4,3.5z M5.4,17.4h13.3L12,21.3L5.4,17.4z"/>
</svg>
