<?xml version="1.0" encoding="utf-8"?>
<!-- Generator: Adobe Illustrator 25.0.1, SVG Export Plug-In . SVG Version: 6.00 Build 0)  -->
<svg version="1.1" id="Calque_1" xmlns="http://www.w3.org/2000/svg" xmlns:xlink="http://www.w3.org/1999/xlink" x="0px" y="0px"
	 viewBox="0 0 24 24" style="enable-background:new 0 0 24 24;position:relative;display:inline-block;" xml:space="preserve">
<style type="text/css">
	.st0{fill:#4169E1;}
</style>
<path class="st0" d="M23.6,14.7c0,0,0-0.1-0.1-0.1c-0.1-0.3-0.5-0.3-1-0.2c-1.7,0.3-2.3,0.1-2.5,0c1.3-2,2.4-4.5,3-6.8
	c0.3-1.1,0.8-3.5,0.1-4.7c0-0.1-0.1-0.2-0.2-0.2C21.7,0.9,19.8,0,17.5,0c-1.5,0-2.8,0.3-3.1,0.5c-0.2,0-0.3-0.1-0.5-0.1
	c-0.4-0.1-0.9-0.1-1.3-0.1c-1.2,0-2.2,0.3-3,0.8C8.7,0.8,4.7-0.5,2.3,1.2c-1.4,1-2,2.7-1.9,5.1c0,0.8,0.5,3.3,1.2,5.7
	c0.5,1.5,0.9,2.7,1.4,3.6c0.6,1,1.1,1.6,1.7,1.8c0.4,0.1,1.1,0.1,1.9-0.7c0.8-1,1.6-1.8,1.9-2.2c0.4,0.2,0.9,0.4,1.4,0.4
	c0,0,0,0,0,0c-0.1,0.1-0.2,0.2-0.2,0.3c-0.3,0.4-0.4,0.5-1.5,0.7C8,16,7.1,16.1,7.1,16.7c0,0.1,0,0.2,0.1,0.3c0.2,0.4,0.9,0.6,1,0.6
	c1.3,0.3,2.5,0.1,3.4-0.7c0,2.2,0.1,4.4,0.3,5.1c0.2,0.6,0.8,1.9,2.5,1.9c0.3,0,0.5,0,0.8-0.1c1.8-0.4,2.6-1.2,2.9-2.9
	c0.2-0.9,0.4-2.9,0.5-4.1c0-0.1,0-0.1,0.1-0.1c0,0,0.1,0,0.4,0c0,0,0,0,0,0l0.3,0l0,0c0.8,0,1.9-0.1,2.5-0.4
	C22.6,16.1,23.8,15.4,23.6,14.7z M2.4,11.9C1.6,9.4,1.2,7,1.2,6.3C1.1,4.1,1.6,2.6,2.7,1.8c1.8-1.3,4.8-0.5,6.1-0.1c0,0,0,0,0,0
	c-2,2-2,5.5-2,5.7c0,0.1,0,0.2,0,0.4c0,0.6,0.1,1.7-0.1,2.9c-0.2,1.2,0.2,2.3,1,3.1C7.8,13.9,7.9,14,8,14c-0.3,0.4-1.1,1.2-1.9,2.2
	c-0.6,0.7-1,0.6-1.1,0.5c-0.4-0.1-0.8-0.6-1.2-1.3C3.3,14.6,2.8,13.4,2.4,11.9z M8.4,17c-0.2,0-0.3-0.1-0.4-0.2
	c0.1,0,0.2-0.1,0.5-0.1c1.3-0.3,1.5-0.5,1.9-1c0.1-0.1,0.2-0.3,0.4-0.4c0,0,0.1-0.1,0.1-0.1c0.2-0.2,0.3-0.1,0.4,0
	c0.2,0.1,0.3,0.3,0.4,0.5c0,0.1,0.1,0.3,0,0.4C10.6,17.2,9.3,17.2,8.4,17z M10.5,13l-0.1,0.1c-0.1,0.4-0.3,0.7-0.3,1
	c-0.7,0-1.3-0.3-1.8-0.8c-0.6-0.7-0.9-1.6-0.8-2.5c0.2-1.3,0.1-2.4,0.1-3.1c0-0.1,0-0.2,0-0.2c0.3-0.3,1.7-1,2.6-0.8
	c0.4,0.1,0.7,0.4,0.8,0.9c0.6,2.7,0.1,3.8-0.3,4.7C10.6,12.6,10.5,12.8,10.5,13z M17.8,17.5c0,0.2,0,0.4-0.1,0.6l-0.1,0.4
	c0,0,0,0.1,0,0.1c0,0.5-0.1,0.6-0.1,0.9c-0.1,0.2-0.1,0.5-0.2,1.1c-0.1,1.4-0.9,2.2-2.4,2.6c-1.5,0.3-1.8-0.5-2-1.2
	c0-0.1,0-0.2-0.1-0.2c-0.2-0.6-0.2-1.4-0.2-2.6c0-0.6,0-1.9-0.3-2.6c0-0.3,0-0.6,0-0.9c0,0,0-0.1,0-0.1c0-0.1,0-0.1,0-0.2
	c-0.1-0.4-0.4-0.8-0.8-0.9c-0.1-0.1-0.4-0.2-0.7-0.1c0.1-0.3,0.2-0.6,0.3-0.9l0.1-0.1c0.1-0.2,0.1-0.3,0.2-0.5
	c0.4-0.9,1-2.2,0.4-5.2c-0.2-1.1-1-1.6-2.2-1.5C8.8,6.1,8.1,6.4,7.8,6.6c-0.1,0-0.1,0.1-0.2,0.1C7.7,5.6,8,3.5,9.3,2.2
	C9.4,2.1,9.5,2,9.6,1.9c0.1,0,0.1,0,0.1-0.1C10.5,1.3,11.5,1,12.6,1c0.4,0,0.8,0,1.2,0.1c1.9,0.4,3.2,1.4,4,2.4
	c0.8,1,1.3,1.9,1.4,2.5c-1.3-0.1-2.2,0.1-2.7,0.8c-1,1.4,0.5,4.2,1.3,5.5c0.1,0.2,0.3,0.5,0.3,0.5c0.2,0.6,0.6,1,0.8,1.3
	c0.1,0.1,0.1,0.2,0.2,0.2C18.7,14.4,18,14.6,18,16c0,0.2,0,0.4-0.1,0.8C17.9,17,17.9,17.2,17.8,17.5z M18.7,15.9
	c0-0.8,0.3-0.9,0.6-1c0,0,0.1,0,0.1,0c0,0,0.1,0.1,0.1,0.1c0.6,0.4,1.6,0.4,3,0.1c-0.2,0.2-0.5,0.4-1,0.6c-0.4,0.2-1.1,0.3-1.7,0.4
	C19.2,16.1,18.8,16,18.7,15.9z M19.3,6.7c0,0.4-0.1,0.7-0.1,1c-0.1,0.4-0.1,0.7-0.1,1.2c0,0.4,0,0.9,0.1,1.3
	c0.1,0.9,0.2,1.8-0.2,2.7c-0.1-0.1-0.1-0.3-0.2-0.4c-0.1-0.1-0.2-0.3-0.3-0.6c-0.6-1.1-2.1-3.7-1.3-4.7C17.5,6.6,18.5,6.6,19.3,6.7z
	 M19.5,13.7c0,0-0.1-0.1-0.1-0.1l0,0c0.7-1.2,0.6-2.4,0.5-3.4c-0.1-0.4-0.1-0.8-0.1-1.2c0-0.4,0.1-0.8,0.1-1.1C20,7.4,20,6.9,20,6.4
	c0-0.1,0-0.1,0-0.2c0-0.5-0.6-1.9-1.7-3.3c-0.6-0.7-1.5-1.5-2.7-2c0.5-0.1,1.2-0.2,2-0.2c2.1,0,3.7,0.8,4.8,2.3c0,0,0,0.1,0.1,0.1
	C23.2,4.5,22.2,9.4,19.5,13.7z M10.7,7.6c0,0.2-0.3,0.4-0.6,0.4c0,0-0.1,0-0.1,0c-0.2,0-0.4-0.1-0.5-0.3c0-0.1-0.1-0.2-0.1-0.3
	c0,0,0-0.1,0.1-0.1c0.1-0.1,0.4-0.1,0.6-0.1C10.4,7.2,10.7,7.3,10.7,7.6z M18.6,7.1c0,0.1,0,0.2-0.2,0.3c-0.1,0.1-0.2,0.2-0.4,0.2
	c0,0,0,0-0.1,0c-0.3,0-0.5-0.2-0.6-0.4C17.4,7.1,17.7,7,18,7C18.3,6.9,18.6,7,18.6,7.1z"/>
</svg>
