<?xml version="1.0" encoding="utf-8"?>
<!-- Generator: Adobe Illustrator 25.0.1, SVG Export Plug-In . SVG Version: 6.00 Build 0)  -->
<svg version="1.1" id="Calque_1" xmlns="http://www.w3.org/2000/svg" xmlns:xlink="http://www.w3.org/1999/xlink" x="0px" y="0px"
	 viewBox="0 0 24 24" style="enable-background:new 0 0 24 24;position:relative;display:inline-block;" xml:space="preserve">
<style type="text/css">
	.st0{fill:#8DD6F9;}
</style>
<path class="st0" d="M22.2,18.5L12.4,24v-4.3l6.1-3.3L22.2,18.5L22.2,18.5z M22.9,17.9V6.4l-3.6,2.1v7.4L22.9,17.9z M1.8,18.5
	l9.8,5.5v-4.3l-6.1-3.3L1.8,18.5L1.8,18.5z M1.1,17.9V6.4l3.6,2.1v7.4L1.1,17.9z M1.6,5.6l10-5.6v4.1L5.2,7.7l0,0L1.6,5.6z
	 M22.4,5.6L12.4,0v4.1l6.4,3.5l0,0L22.4,5.6L22.4,5.6z M11.6,18.7l-6-3.3V8.9l6,3.5L11.6,18.7L11.6,18.7z M12.4,18.7l6-3.3V8.9
	l-6,3.5L12.4,18.7z M6,8.2l6-3.3l6,3.3l-6,3.5L6,8.2z"/>
</svg>
